<svg width="153" height="34" viewBox="0 0 153 34" fill="none" xmlns="http://www.w3.org/2000/svg">
<path d="M65.2462 6.7694V10.1255H59.722V27.5H55.564V10.1255H50.0398V6.7694H65.2462ZM72.141 13.6004C72.6756 12.7292 73.3686 12.0461 74.22 11.5511C75.0912 11.0561 76.0812 10.8086 77.19 10.8086V15.1745H76.0911C74.7843 15.1745 73.7943 15.4814 73.1211 16.0952C72.4677 16.709 72.141 17.7782 72.141 19.3028V27.5H67.983V11.0462H72.141V13.6004ZM81.8023 9.086C81.0697 9.086 80.4559 8.8583 79.9609 8.4029C79.4857 7.9277 79.2481 7.3436 79.2481 6.6506C79.2481 5.9576 79.4857 5.3834 79.9609 4.928C80.4559 4.4528 81.0697 4.2152 81.8023 4.2152C82.5349 4.2152 83.1388 4.4528 83.614 4.928C84.109 5.3834 84.3565 5.9576 84.3565 6.6506C84.3565 7.3436 84.109 7.9277 83.614 8.4029C83.1388 8.8583 82.5349 9.086 81.8023 9.086ZM83.8516 11.0462V27.5H79.6936V11.0462H83.8516ZM91.8207 13.4519C92.3553 12.6599 93.0879 12.0164 94.0185 11.5214C94.9689 11.0264 96.048 10.7789 97.2558 10.7789C98.6616 10.7789 99.9288 11.1254 101.057 11.8184C102.206 12.5114 103.107 13.5014 103.76 14.7884C104.433 16.0556 104.77 17.5307 104.77 19.2137C104.77 20.8967 104.433 22.3916 103.76 23.6984C103.107 24.9854 102.206 25.9853 101.057 26.6981C99.9288 27.4109 98.6616 27.7673 97.2558 27.7673C96.0282 27.7673 94.9491 27.5297 94.0185 27.0545C93.1077 26.5595 92.3751 25.9259 91.8207 25.1537V27.5H87.6627V5.522H91.8207V13.4519ZM100.523 19.2137C100.523 18.2237 100.315 17.3723 99.8991 16.6595C99.5031 15.9269 98.9685 15.3725 98.2953 14.9963C97.6419 14.6201 96.9291 14.432 96.1569 14.432C95.4045 14.432 94.6917 14.63 94.0185 15.026C93.3651 15.4022 92.8305 15.9566 92.4147 16.6892C92.0187 17.4218 91.8207 18.2831 91.8207 19.2731C91.8207 20.2631 92.0187 21.1244 92.4147 21.857C92.8305 22.5896 93.3651 23.1539 94.0185 23.5499C94.6917 23.9261 95.4045 24.1142 96.1569 24.1142C96.9291 24.1142 97.6419 23.9162 98.2953 23.5202C98.9685 23.1242 99.5031 22.5599 99.8991 21.8273C100.315 21.0947 100.523 20.2235 100.523 19.2137ZM111.652 13.4519C112.187 12.6599 112.92 12.0164 113.85 11.5214C114.801 11.0264 115.88 10.7789 117.088 10.7789C118.493 10.7789 119.761 11.1254 120.889 11.8184C122.038 12.5114 122.938 13.5014 123.592 14.7884C124.265 16.0556 124.602 17.5307 124.602 19.2137C124.602 20.8967 124.265 22.3916 123.592 23.6984C122.938 24.9854 122.038 25.9853 120.889 26.6981C119.761 27.4109 118.493 27.7673 117.088 27.7673C115.86 27.7673 114.781 27.5297 113.85 27.0545C112.939 26.5595 112.207 25.9259 111.652 25.1537V27.5H107.494V5.522H111.652V13.4519ZM120.355 19.2137C120.355 18.2237 120.147 17.3723 119.731 16.6595C119.335 15.9269 118.8 15.3725 118.127 14.9963C117.474 14.6201 116.761 14.432 115.989 14.432C115.236 14.432 114.523 14.63 113.85 15.026C113.197 15.4022 112.662 15.9566 112.246 16.6892C111.85 17.4218 111.652 18.2831 111.652 19.2731C111.652 20.2631 111.85 21.1244 112.246 21.857C112.662 22.5896 113.197 23.1539 113.85 23.5499C114.523 23.9261 115.236 24.1142 115.989 24.1142C116.761 24.1142 117.474 23.9162 118.127 23.5202C118.8 23.1242 119.335 22.5599 119.731 21.8273C120.147 21.0947 120.355 20.2235 120.355 19.2137ZM142.622 18.9167C142.622 19.5107 142.582 20.0453 142.503 20.5205H130.474C130.573 21.7085 130.989 22.6391 131.722 23.3123C132.454 23.9855 133.355 24.3221 134.424 24.3221C135.969 24.3221 137.068 23.6588 137.721 22.3322H142.206C141.731 23.9162 140.82 25.223 139.473 26.2526C138.127 27.2624 136.474 27.7673 134.514 27.7673C132.93 27.7673 131.504 27.4208 130.237 26.7278C128.989 26.015 128.009 25.0151 127.296 23.7281C126.603 22.4411 126.257 20.9561 126.257 19.2731C126.257 17.5703 126.603 16.0754 127.296 14.7884C127.989 13.5014 128.96 12.5114 130.207 11.8184C131.454 11.1254 132.89 10.7789 134.514 10.7789C136.078 10.7789 137.474 11.1155 138.701 11.7887C139.949 12.4619 140.909 13.4222 141.582 14.6696C142.275 15.8972 142.622 17.3129 142.622 18.9167ZM138.315 17.7287C138.295 16.6595 137.909 15.8081 137.157 15.1745C136.404 14.5211 135.484 14.1944 134.395 14.1944C133.365 14.1944 132.494 14.5112 131.781 15.1448C131.088 15.7586 130.662 16.6199 130.504 17.7287H138.315ZM149.518 5.522V27.5H145.36V5.522H149.518Z" fill="#8DE444"/>
<path d="M12.6172 10.6264C12.621 9.28665 12.8005 7.882 12.9612 6.55115C13.0193 6.06989 12.9091 5.55025 13.1438 5.10368C13.5481 4.33382 14.5356 4.35744 14.8622 5.193C15.13 5.87724 14.7521 6.91357 14.746 7.63768C16.2435 6.28321 17.6881 5.2395 19.7438 4.88594C20.1473 4.81655 20.7373 4.7206 21.1303 4.85936C21.6403 5.03873 21.9601 5.61004 21.6644 6.08982C21.1167 6.97558 19.4307 6.70985 18.5405 7.0826C16.5316 7.92407 14.9331 9.88749 14.4669 11.9838C14.181 13.2762 14.2097 14.6551 14.0799 15.9697C13.7284 19.5282 13.5006 23.097 13.1543 26.6548C13.014 28.0986 12.8616 29.5519 12.796 31.0016C12.7756 31.4534 12.5591 32.0741 12.7628 32.5067C13.0344 33.0832 14.0965 33.2116 14.6487 33.3186C16.5943 33.6995 18.8461 33.1902 20.3865 31.9546C23.6605 29.3283 22.894 24.5091 21.77 21.0399C21.4767 20.1448 21.1288 19.2679 20.7282 18.4136C20.5336 17.9958 20.1292 17.4363 20.1466 16.9647C20.1783 16.1143 20.996 15.081 21.5912 14.5288C23.0705 13.1537 25.2001 12.7714 27.1427 12.4901C28.9169 12.2333 30.7071 11.9483 32.418 11.411C34.2006 10.8515 36.0095 9.94359 36.6274 8.08941C37.5696 5.26533 36.1144 1.43076 32.974 0.685252C32.1668 0.493339 31.3 0.573055 30.4755 0.573055C28.8672 0.573055 27.2656 0.623988 25.6633 0.66237C20.6671 0.783423 15.6664 0.8159 10.6732 0.936215C8.702 0.983455 6.71272 0.829925 4.74984 1.01003C4.29043 1.05284 3.81744 0.976811 3.3618 1.05505C2.48748 1.20268 1.715 1.88619 1.20957 2.56526C0.646823 3.31651 0.267243 4.18381 0.0998889 5.10073C-0.0168736 5.78942 -0.0313567 6.49099 0.0568891 7.18373C0.553267 10.912 5.1225 11.6317 8.26673 11.3342C8.94566 11.27 9.62837 11.1504 10.3035 11.053C11.0798 10.9423 11.8409 10.7282 12.6172 10.6264Z" fill="#8DE444"/>
</svg>
